# xmcd CD database file# Copyright (C) 1993-1999 CDDB, Inc.# Generated: Thu Feb 12 13:47:43 1998 by KSCD# # Track frame offsets:#	182#	17481#	40658#	61011#	80674#	101801#	119760#	141602#	157113## Disc length: 2316 seconds## Revision: 2# Processed by: cddbd v1.4.1b14PL0 Copyright (c) 1996-1998 CDDB Inc.# Submitted via: Kscd 0.8.0#DISCID=7b090a09DTITLE=Marla Glen / This Is Marla GlenTTITLE0=The Cost Of FreedomTTITLE1=BelieverTTITLE2=Destiny (To Get Up Again)TTITLE3=EnoughTTITLE4=PersonalTTITLE5=ControlTTITLE6=TravelTTITLE7=Feet On The GroundTTITLE8=You Hurt MeEXTD=EXTT0=EXTT1=EXTT2=EXTT3=EXTT4=EXTT5=EXTT6=EXTT7=EXTT8=PLAYORDER=.# xmcd CD database file# Copyright (C) 1993-1999 CDDB, Inc.# # Track frame offsets:#	183#	14426#	23420#	44931#	64261#	92867#	108867#	130768#	141635#	164576#	174509#	186720#	204780#	221223#	246578#	262042#	276724#	306166#	318901# # Disc length: 4385 seconds# # Revision: 1# Processed by: cddbd v1.4.1b14PL1 Copyright (c) 1996-1998 CDDB Inc.# Submitted via: DiscPlay 4.0.4# DISCID=34111f13DTITLE=Ougenweide / LiederbuchTTITLE0=Im BadehausTTITLE1=Pferdesegen (Contra Uermes)TTITLE2=Tobacco-LobTTITLE3=Ouwe wie jaemmerliche...TTITLE4=Der Blinde und der LahmeTTITLE5=Merseburger Zauberspr che / TanzTTITLE6=Es stuont ein frouwe alleineTTITLE7=Niemand kan mit GertenTTITLE8=Kommt ihr Jungfern helft mir klagenTTITLE9=EnzioTTITLE10=Totus FloreoTTITLE11=Gerhart AtzeTTITLE12=RondeTTITLE13=Wol mich der StundeTTITLE14=F r IreneTTITLE15=Hinweg, die besten Streiter mattTTITLE16=Bald andersTTITLE17=Zu Frankfurt, an dem MainTTITLE18=DenunziantenliedEXTD=EXTT0=EXTT1=EXTT2=EXTT3=EXTT4=EXTT5=EXTT6=EXTT7=EXTT8=EXTT9=EXTT10=EXTT11=EXTT12=EXTT13=EXTT14=EXTT15=EXTT16=EXTT17=EXTT18=PLAYORDER=.# xmcd CD database file# Copyright (C) 1993-1999 CDDB, Inc.# Generated: Thu Feb 12 13:47:43 1998 by KSCD# # Track frame offsets:#	182#	17481#	40658#	61011#	80674#	101801#	119760#	141602#	157113## Disc length: 2316 seconds## Revision: 2# Processed by: cddbd v1.4.1b14PL1 Copyright (c) 1996-1998 CDDB Inc.# Submitted via: Kscd 0.8.0#DISCID=7b090a09DTITLE=Marla Glen / This Is Marla GlenTTITLE0=The Cost Of FreedomTTITLE1=BelieverTTITLE2=Destiny (To Get Up Again)TTITLE3=EnoughTTITLE4=PersonalTTITLE5=ControlTTITLE6=TravelTTITLE7=Feet On The GroundTTITLE8=You Hurt MeEXTD=EXTT0=EXTT1=EXTT2=EXTT3=EXTT4=EXTT5=EXTT6=EXTT7=EXTT8=PLAYORDER=.# xmcd CD database file# Copyright (C) 1993-1999 CDDB, Inc.## Track frame offsets:#	182#	17479#	40660#	61017#	80679#	101795#	119773#	141606#	157119## Disc length: 2314 seconds## Revision: 2# Processed by: cddbd v1.4.1b15PL0 Copyright (c) 1996-1998 CDDB Inc.# Submitted via: EZCDDA 0.1#DISCID=7b090809DTITLE=Marla Glen / This is Marla GlenTTITLE0=The Cost Of FreedomTTITLE1=BelieverTTITLE2=Destiny (To Get Up Again)TTITLE3=EnoughTTITLE4=PersonalTTITLE5=ControlTTITLE6=TravelTTITLE7=Feet On The GroundTTITLE8=You Hurt MeEXTD=EXTT0=EXTT1=EXTT2=EXTT3=EXTT4=EXTT5=EXTT6=EXTT7=EXTT8=PLAYORDER=.# xmcd CD database file# Copyright (C) 1993-1999 CDDB, Inc.## Track frame offsets:#	182#	17479#	40660#	61017#	80679#	101795#	119773#	141606#	157119## Disc length: 2314 seconds## Revision: 2# Processed by: cddbd v1.4.1b15PL0 Copyright (c) 1996-1998 CDDB Inc.# Submitted via: EZCDDA 0.1#DISCID=7b090809DTITLE=Marla Glen / This is Marla GlenTTITLE0=The Cost Of FreedomTTITLE1=BelieverTTITLE2=Destiny (To Get Up Again)TTITLE3=EnoughTTITLE4=PersonalTTITLE5=ControlTTITLE6=TravelTTITLE7=Feet On The GroundTTITLE8=You Hurt MeEXTD=EXTT0=EXTT1=EXTT2=EXTT3=EXTT4=EXTT5=EXTT6=EXTT7=EXTT8=PLAYORDER=.# xmcd CD database file# Copyright (C) 1993-1999 CDDB, Inc.## Track frame offsets:#	150#	10558#	19703#	27545#	37903#	48947#	58661#	67820#	79618#	90424## Disc length: 1331 seconds## Revision: 1# Processed by: cddbd v1.4.1b15PL0 Copyright (c) 1996-1998 CDDB Inc.# Submitted via: CDWizzard Release:4.14#DISCID=6605310aDTITLE=The Beach Boys / Surfin In The UsaTTITLE0=SurfinTTITLE1=Surfin SafariTTITLE2=LuauTTITLE3=BarbieTTITLE4=Surfer GirlTTITLE5=KarateTTITLE6=What is a young girl made of?TTITLE7=Balboa BlueTTITLE8=Wipe outTTITLE9=Surfer4s StompEXTD=EXTT0=EXTT1=EXTT2=EXTT3=EXTT4=EXTT5=EXTT6=EXTT7=EXTT8=EXTT9=PLAYORDER=.# xmcd CD database file# Copyright (C) 1993-1999 CDDB, Inc.## Track frame offsets:#	150#	10558#	19703#	27545#	37903#	48947#	58661#	67820#	79618#	90424## Disc length: 1331 seconds## Revision: 1# Processed by: cddbd v1.4.1b15PL0 Copyright (c) 1996-1998 CDDB Inc.# Submitted via: CDWizzard Release:4.14#DISCID=6605310aDTITLE=The Beach Boys / Surfin In The UsaTTITLE0=SurfinTTITLE1=Surfin SafariTTITLE2=LuauTTITLE3=BarbieTTITLE4=Surfer GirlTTITLE5=KarateTTITLE6=What is a young girl made of?TTITLE7=Balboa BlueTTITLE8=Wipe outTTITLE9=Surfer4s StompEXTD=EXTT0=EXTT1=EXTT2=EXTT3=EXTT4=EXTT5=EXTT6=EXTT7=EXTT8=EXTT9=PLAYORDER=.# xmcd CD database file# Copyright (C) 1993-1999 CDDB, Inc.## Track frame offsets:#	182#	17479#	40660#	61017#	80679#	101795#	119773#	141606#	157119## Disc length: 2314 seconds## Revision: 2# Processed by: cddbd v1.4.1b15PL0 Copyright (c) 1996-1998 CDDB Inc.# Submitted via: EZCDDA 0.1#DISCID=7b090809DTITLE=Marla Glen / This is Marla GlenTTITLE0=The Cost Of FreedomTTITLE1=BelieverTTITLE2=Destiny (To Get Up Again)TTITLE3=EnoughTTITLE4=PersonalTTITLE5=ControlTTITLE6=TravelTTITLE7=Feet On The GroundTTITLE8=You Hurt MeEXTD=EXTT0=EXTT1=EXTT2=EXTT3=EXTT4=EXTT5=EXTT6=EXTT7=EXTT8=PLAYORDER=.# xmcd CD database file# Copyright (C) 1993-1999 CDDB, Inc.## Track frame offsets:#	182#	17479#	40660#	61017#	80679#	101795#	119773#	141606#	157119## Disc length: 2314 seconds## Revision: 2# Processed by: cddbd v1.4.1b15PL0 Copyright (c) 1996-1998 CDDB Inc.# Submitted via: EZCDDA 0.1#DISCID=7b090809DTITLE=Marla Glen / This is Marla GlenTTITLE0=The Cost Of FreedomTTITLE1=BelieverTTITLE2=Destiny (To Get Up Again)TTITLE3=EnoughTTITLE4=PersonalTTITLE5=ControlTTITLE6=TravelTTITLE7=Feet On The GroundTTITLE8=You Hurt MeEXTD=EXTT0=EXTT1=EXTT2=EXTT3=EXTT4=EXTT5=EXTT6=EXTT7=EXTT8=PLAYORDER=.# xmcd CD database file# Copyright (C) 1993-1999 CDDB, Inc.## Track frame offsets:#	182#	17479#	40660#	61017#	80679#	101795#	119773#	141606#	157119## Disc length: 2314 seconds## Revision: 2# Processed by: cddbd v1.4.1b15PL0 Copyright (c) 1996-1998 CDDB Inc.# Submitted via: EZCDDA 0.1#DISCID=7b090809DTITLE=Marla Glen / This is Marla GlenTTITLE0=The Cost Of FreedomTTITLE1=BelieverTTITLE2=Destiny (To Get Up Again)TTITLE3=EnoughTTITLE4=PersonalTTITLE5=ControlTTITLE6=TravelTTITLE7=Feet On The GroundTTITLE8=You Hurt MeEXTD=EXTT0=EXTT1=EXTT2=EXTT3=EXTT4=EXTT5=EXTT6=EXTT7=EXTT8=PLAYORDER=.# xmcd CD database file# Copyright (C) 1993-1999 CDDB, Inc.## Track frame offsets:#	182#	17479#	40660#	61017#	80679#	101795#	119773#	141606#	157119## Disc length: 2314 seconds## Revision: 2# Processed by: cddbd v1.4.1b15PL0 Copyright (c) 1996-1998 CDDB Inc.# Submitted via: EZCDDA 0.1#DISCID=7b090809DTITLE=Marla Glen / This is Marla GlenTTITLE0=The Cost Of FreedomTTITLE1=BelieverTTITLE2=Destiny (To Get Up Again)TTITLE3=EnoughTTITLE4=PersonalTTITLE5=ControlTTITLE6=TravelTTITLE7=Feet On The GroundTTITLE8=You Hurt MeEXTD=EXTT0=EXTT1=EXTT2=EXTT3=EXTT4=EXTT5=EXTT6=EXTT7=EXTT8=PLAYORDER=.# xmcd CD database file# Copyright (C) 1993-1999 CDDB, Inc.## Track frame offsets:#	182#	17479#	40660#	61017#	80679#	101795#	119773#	141606#	157119## Disc length: 2314 seconds## Revision: 2# Processed by: cddbd v1.4.1b15PL0 Copyright (c) 1996-1998 CDDB Inc.# Submitted via: EZCDDA 0.1#DISCID=7b090809DTITLE=Marla Glen / This is Marla GlenTTITLE0=The Cost Of FreedomTTITLE1=BelieverTTITLE2=Destiny (To Get Up Again)TTITLE3=EnoughTTITLE4=PersonalTTITLE5=ControlTTITLE6=TravelTTITLE7=Feet On The GroundTTITLE8=You Hurt MeEXTD=EXTT0=EXTT1=EXTT2=EXTT3=EXTT4=EXTT5=EXTT6=EXTT7=EXTT8=PLAYORDER=.# xmcd CD database file# Copyright (C) 1993-1999 CDDB, Inc.## Track frame offsets:#	150#	10558#	19703#	27545#	37903#	48947#	58661#	67820#	79618#	90424## Disc length: 1331 seconds## Revision: 1# Processed by: cddbd v1.4.1b15PL0 Copyright (c) 1996-1998 CDDB Inc.# Submitted via: CDWizzard Release:4.14#DISCID=6605310aDTITLE=The Beach Boys / Surfin In The UsaTTITLE0=SurfinTTITLE1=Surfin SafariTTITLE2=LuauTTITLE3=BarbieTTITLE4=Surfer GirlTTITLE5=KarateTTITLE6=What is a young girl made of?TTITLE7=Balboa BlueTTITLE8=Wipe outTTITLE9=Surfer4s StompEXTD=EXTT0=EXTT1=EXTT2=EXTT3=EXTT4=EXTT5=EXTT6=EXTT7=EXTT8=EXTT9=PLAYORDER=.# xmcd CD database file# Copyright (C) 1993-1999 CDDB, Inc.## Track frame offsets:#	182#	17479#	40660#	61017#	80679#	101795#	119773#	141606#	157119## Disc length: 2314 seconds## Revision: 2# Processed by: cddbd v1.4.1b15PL0 Copyright (c) 1996-1998 CDDB Inc.# Submitted via: EZCDDA 0.1#DISCID=7b090809DTITLE=Marla Glen / This is Marla GlenTTITLE0=The Cost Of FreedomTTITLE1=BelieverTTITLE2=Destiny (To Get Up Again)TTITLE3=EnoughTTITLE4=PersonalTTITLE5=ControlTTITLE6=TravelTTITLE7=Feet On The GroundTTITLE8=You Hurt MeEXTD=EXTT0=EXTT1=EXTT2=EXTT3=EXTT4=EXTT5=EXTT6=EXTT7=EXTT8=PLAYORDER=.# xmcd CD database file# Copyright (C) 1993-1999 CDDB, Inc.## Track frame offsets:#	150#	10558#	19703#	27545#	37903#	48947#	58661#	67820#	79618#	90424## Disc length: 1331 seconds## Revision: 1# Processed by: cddbd v1.4.1b15PL0 Copyright (c) 1996-1998 CDDB Inc.# Submitted via: CDWizzard Release:4.14#DISCID=6605310aDTITLE=The Beach Boys / Surfin In The UsaTTITLE0=SurfinTTITLE1=Surfin SafariTTITLE2=LuauTTITLE3=BarbieTTITLE4=Surfer GirlTTITLE5=KarateTTITLE6=What is a young girl made of?TTITLE7=Balboa BlueTTITLE8=Wipe outTTITLE9=Surfer4s StompEXTD=EXTT0=EXTT1=EXTT2=EXTT3=EXTT4=EXTT5=EXTT6=EXTT7=EXTT8=EXTT9=PLAYORDER=.# xmcd CD database file# Copyright (C) 1993-1999 CDDB, Inc.## Track frame offsets:#	150#	10558#	19703#	27545#	37903#	48947#	58661#	67820#	79618#	90424## Disc length: 1331 seconds## Revision: 1# Processed by: cddbd v1.4.1b15PL0 Copyright (c) 1996-1998 CDDB Inc.# Submitted via: CDWizzard Release:4.14#DISCID=6605310aDTITLE=The Beach Boys / Surfin In The UsaTTITLE0=SurfinTTITLE1=Surfin SafariTTITLE2=LuauTTITLE3=BarbieTTITLE4=Surfer GirlTTITLE5=KarateTTITLE6=What is a young girl made of?TTITLE7=Balboa BlueTTITLE8=Wipe outTTITLE9=Surfer4s StompEXTD=EXTT0=EXTT1=EXTT2=EXTT3=EXTT4=EXTT5=EXTT6=EXTT7=EXTT8=EXTT9=PLAYORDER=.# xmcd CD database file# Copyright (C) 1993-1999 CDDB, Inc.## Track frame offsets:#	150#	10558#	19703#	27545#	37903#	48947#	58661#	67820#	79618#	90424## Disc length: 1331 seconds## Revision: 1# Processed by: cddbd v1.4.1b15PL0 Copyright (c) 1996-1998 CDDB Inc.# Submitted via: CDWizzard Release:4.14#DISCID=6605310aDTITLE=The Beach Boys / Surfin In The UsaTTITLE0=SurfinTTITLE1=Surfin SafariTTITLE2=LuauTTITLE3=BarbieTTITLE4=Surfer GirlTTITLE5=KarateTTITLE6=What is a young girl made of?TTITLE7=Balboa BlueTTITLE8=Wipe outTTITLE9=Surfer4s StompEXTD=EXTT0=EXTT1=EXTT2=EXTT3=EXTT4=EXTT5=EXTT6=EXTT7=EXTT8=EXTT9=PLAYORDER=.# xmcd CD database file# Copyright (C) 1993-1999 CDDB, Inc.## Track frame offsets:#	150#	26684#	52764#	74149#	95329#	117702#	144309#	163983#	188657#	209375#	231322#	253144#	281560## Disc length: 4501 seconds## Revision: 38# Processed by: cddbd v1.4.1b15PL0 Copyright (c) 1996-1998 CDDB Inc.# Submitted via: NotifyCDPlayer(CDDB) 1.51.3#DISCID=c711930dDTITLE=Santana / SupernaturalTTITLE0=(Da Le) YaleoTTITLE1=Love of my Life (featuring Dave Matthews)TTITLE2=Put Your Lights On (featuring Everlast)TTITLE3=Africa BambaTTITLE4=Smooth (featuring Rob Thomas)TTITLE5=Do You Like the Way (featuring Lauryn Hill & Cee-Lo)TTITLE6=Maria MariaTTITLE7=MigraTTITLE8=Corazon Espinado (featuring Mana)TTITLE9=Wishing it Was (featuring Eagle-Eye Cherry)TTITLE10=El FarolTTITLE11=PrimaveraTTITLE12=The Calling (featuring Eric Clapton)EXTD=EXTT0=EXTT1=EXTT2=EXTT3=EXTT4=EXTT5=EXTT6=EXTT7=EXTT8=EXTT9=EXTT10=EXTT11=EXTT12=PLAYORDER=.200 rock 6605310a The Beach Boys / Surfin In The Usarock 6605310a The Beach Boys / Surfin In The Usa# xmcd CD database file# Copyright (C) 1993-1999 CDDB, Inc.## Track frame offsets:#	150#	10558#	19703#	27545#	37903#	48947#	58661#	67820#	79618#	90424## Disc length: 1331 seconds## Revision: 1# Processed by: cddbd v1.4.1b15PL0 Copyright (c) 1996-1998 CDDB Inc.# Submitted via: CDWizzard Release:4.14#DISCID=6605310aDTITLE=The Beach Boys / Surfin In The UsaTTITLE0=SurfinTTITLE1=Surfin SafariTTITLE2=LuauTTITLE3=BarbieTTITLE4=Surfer GirlTTITLE5=KarateTTITLE6=What is a young girl made of?TTITLE7=Balboa BlueTTITLE8=Wipe outTTITLE9=Surfer4s StompEXTD=EXTT0=EXTT1=EXTT2=EXTT3=EXTT4=EXTT5=EXTT6=EXTT7=EXTT8=EXTT9=PLAYORDER=.200 rock c711930d Santana / Supernaturalrock c711930d Santana / Supernatural# xmcd CD database file# Copyright (C) 1993-1999 CDDB, Inc.## Track frame offsets:#	150#	26684#	52764#	74149#	95329#	117702#	144309#	163983#	188657#	209375#	231322#	253144#	281560## Disc length: 4501 seconds## Revision: 38# Processed by: cddbd v1.4.1b15PL0 Copyright (c) 1996-1998 CDDB Inc.# Submitted via: NotifyCDPlayer(CDDB) 1.51.3#DISCID=c711930dDTITLE=Santana / SupernaturalTTITLE0=(Da Le) YaleoTTITLE1=Love of my Life (featuring Dave Matthews)TTITLE2=Put Your Lights On (featuring Everlast)TTITLE3=Africa BambaTTITLE4=Smooth (featuring Rob Thomas)TTITLE5=Do You Like the Way (featuring Lauryn Hill & Cee-Lo)TTITLE6=Maria MariaTTITLE7=MigraTTITLE8=Corazon Espinado (featuring Mana)TTITLE9=Wishing it Was (featuring Eagle-Eye Cherry)TTITLE10=El FarolTTITLE11=PrimaveraTTITLE12=The Calling (featuring Eric Clapton)EXTD=EXTT0=EXTT1=EXTT2=EXTT3=EXTT4=EXTT5=EXTT6=EXTT7=EXTT8=EXTT9=EXTT10=EXTT11=EXTT12=PLAYORDER=.